<svg version="1.0" xmlns="http://www.w3.org/2000/svg"
 width="707.000000pt" height="427.000000pt" viewBox="0 0 707.000000 427.000000"
 preserveAspectRatio="xMidYMid meet">

<g transform="translate(0.000000,427.000000) scale(0.100000,-0.100000)"
fill="#000000" stroke="none">
<path d="M4080 4255 c-137 -29 -265 -92 -391 -194 -105 -84 -175 -161 -245
-268 -106 -160 -170 -321 -200 -498 -29 -180 -3 -406 62 -525 29 -53 116 -154
112 -130 -1 8 1 47 6 86 7 71 7 72 -25 105 -39 43 -75 120 -84 182 -8 62 10
63 77 2 28 -25 53 -45 57 -45 4 0 12 51 17 113 10 110 9 113 -14 144 -39 53
-62 127 -62 201 0 98 13 110 45 39 14 -32 25 -60 25 -63 0 -3 11 -21 24 -41
l25 -36 6 39 c23 133 64 238 140 359 43 70 130 164 140 153 3 -3 -10 -38 -29
-78 -38 -78 -111 -288 -104 -296 3 -2 52 18 109 45 57 27 124 57 149 68 l45
20 28 98 c57 205 176 386 322 492 16 12 26 25 22 29 -14 14 -190 14 -257 -1z"/>
<path d="M3858 3456 c-76 -27 -192 -88 -224 -117 -26 -25 -38 -128 -28 -247
l7 -81 72 49 c40 27 89 65 110 84 44 42 55 45 55 12 0 -33 -27 -95 -61 -137
-22 -28 -101 -95 -148 -126 -3 -2 25 -223 36 -273 5 -23 9 -20 78 54 139 149
164 222 175 511 5 116 12 229 16 253 8 50 6 51 -88 18z"/>
<path d="M4498 3136 c-133 -54 -359 -216 -472 -337 -79 -86 -151 -184 -206
-284 l-33 -60 99 96 c114 111 269 239 289 239 8 0 19 -9 25 -20 9 -17 0 -31
-72 -108 -91 -97 -213 -246 -274 -332 -33 -48 -23 -40 86 65 192 185 362 306
599 424 107 54 258 112 339 131 30 7 50 16 45 20 -4 4 -50 19 -101 34 -115 32
-162 56 -221 111 l-47 44 -56 -23z"/>
<path d="M2525 3113 c-48 -43 -154 -93 -247 -118 -38 -10 -68 -21 -68 -26 0
-4 26 -15 58 -24 93 -26 240 -84 347 -138 201 -100 360 -219 579 -435 l140
-137 -68 100 c-86 126 -135 184 -260 313 -83 85 -99 106 -90 119 6 9 15 18 21
20 18 6 172 -116 292 -232 110 -105 114 -108 86 -60 -107 189 -216 319 -380
449 -124 99 -310 207 -355 206 -8 -1 -33 -17 -55 -37z"/>
<path d="M3522 2655 c-17 -328 -15 -504 6 -584 60 -230 91 155 43 544 -37 305
-35 304 -49 40z"/>
<path d="M2026 2786 l-99 -54 79 -7 c202 -17 403 -75 620 -179 204 -98 379
-217 553 -375 52 -47 89 -77 84 -66 -31 58 -116 158 -225 266 -194 193 -420
331 -684 418 -65 22 -144 42 -174 45 -52 5 -60 3 -154 -48z"/>
<path d="M4865 2820 c-219 -58 -423 -155 -602 -287 -97 -72 -267 -240 -340
-338 -83 -112 -85 -118 -12 -50 108 102 168 149 314 245 297 196 602 312 882
335 47 4 80 11 77 16 -12 21 -185 99 -216 98 -18 0 -64 -8 -103 -19z"/>
<path d="M1950 2557 c-36 -12 -84 -34 -108 -48 l-43 -26 138 -7 c199 -10 279
-22 448 -67 295 -80 553 -215 775 -409 90 -78 102 -83 50 -20 -66 81 -142 154
-250 240 -176 140 -340 228 -549 294 -221 70 -349 82 -461 43z"/>
<path d="M4930 2573 c-383 -75 -740 -275 -974 -548 -87 -101 -85 -102 24 -11
125 105 235 179 348 235 284 142 553 214 846 228 156 7 155 7 41 66 -54 28
-70 31 -160 33 -55 1 -111 0 -125 -3z"/>
<path d="M1882 2350 c-54 -10 -148 -54 -192 -90 l-25 -20 70 7 c134 15 492 8
587 -10 196 -39 425 -120 643 -229 91 -45 90 -42 -15 34 -195 144 -443 247
-706 293 -107 19 -296 26 -362 15z"/>
<path d="M5035 2354 c-196 -19 -445 -85 -612 -164 -59 -28 -150 -78 -201 -113
-93 -62 -109 -86 -31 -46 158 80 451 174 657 209 128 22 348 27 496 10 49 -6
91 -9 93 -6 10 10 -95 76 -142 90 -52 16 -191 26 -260 20z"/>
<path d="M1842 2135 c-73 -13 -222 -76 -245 -103 -10 -13 -6 -14 33 -8 349 58
531 58 816 1 172 -35 289 -75 451 -156 132 -66 173 -92 161 -104 -3 -3 -25 2
-49 10 -148 53 -395 115 -600 150 -125 22 -476 31 -595 16 -106 -14 -245 -47
-294 -70 -33 -15 -36 -21 -49 -89 -7 -40 -11 -75 -8 -78 3 -4 41 7 84 24 161
61 329 91 558 99 192 6 351 -6 550 -42 376 -69 630 -168 733 -284 110 -125
235 -119 358 18 23 26 64 59 92 74 178 97 546 194 867 228 133 14 437 6 577
-15 77 -12 273 -69 379 -111 15 -6 15 0 0 75 -14 68 -20 84 -41 95 -40 21
-208 63 -300 75 -107 15 -389 14 -505 0 -172 -21 -407 -73 -610 -135 -65 -19
-120 -33 -123 -30 -12 12 28 38 151 98 275 136 524 190 867 191 152 0 206 -4
304 -22 65 -13 120 -21 123 -18 7 6 -61 48 -121 74 -92 41 -196 55 -361 49
-323 -12 -611 -99 -923 -278 -105 -61 -236 -146 -319 -209 l-42 -31 -11 40
c-30 112 -176 180 -276 128 -41 -21 -92 -80 -100 -115 -3 -15 -7 -32 -9 -39
-2 -7 -69 32 -157 91 -273 184 -421 261 -633 329 -246 79 -537 108 -733 72z
m1787 -441 c25 -21 31 -33 31 -66 0 -50 -13 -74 -50 -93 -46 -24 -78 -19 -116
19 -36 36 -40 55 -23 105 22 62 105 80 158 35z"/>
<path d="M405 1349 c-237 -84 -405 -357 -405 -662 0 -83 24 -220 51 -294 46
-122 152 -253 259 -318 195 -118 439 -67 526 111 49 100 43 255 -11 290 -45
29 -53 15 -48 -78 5 -77 3 -87 -23 -137 -35 -65 -104 -117 -170 -127 -139 -21
-286 139 -345 375 -18 73 -21 104 -16 225 6 156 21 219 77 325 40 75 131 162
187 179 121 36 233 -15 281 -128 14 -33 12 -85 -4 -152 -14 -60 62 -43 92 20
21 46 15 149 -13 214 -27 59 -85 117 -148 148 -72 34 -207 39 -290 9z"/>
<path d="M6658 1326 c-89 -36 -143 -88 -194 -186 -26 -49 -29 -65 -29 -151 0
-88 2 -100 34 -162 21 -41 67 -103 120 -160 182 -196 207 -226 229 -270 12
-25 25 -67 28 -94 11 -97 -67 -182 -168 -183 -59 0 -86 10 -132 51 -55 48 -79
101 -84 192 -3 42 -7 79 -11 81 -37 23 -68 -127 -50 -234 15 -81 56 -135 134
-175 51 -26 69 -30 139 -30 104 1 150 15 224 69 48 36 66 58 94 113 30 62 33
75 33 163 0 92 -1 98 -40 170 -29 55 -75 112 -177 219 -195 206 -229 281 -177
388 39 80 139 128 219 104 81 -24 139 -131 110 -202 -10 -23 -10 -32 0 -44 19
-22 38 -18 71 14 26 27 29 36 29 98 0 57 -5 76 -29 119 -31 54 -79 96 -136
120 -55 22 -169 18 -237 -10z"/>
<path d="M6260 1288 c-15 -7 -115 -13 -260 -16 -129 -2 -239 -8 -245 -13 -6
-6 4 -20 25 -38 l35 -29 0 -520 0 -521 -27 -28 c-16 -16 -28 -37 -28 -46 0
-14 5 -16 28 -10 39 11 318 7 403 -6 39 -7 79 -9 89 -6 42 13 77 191 50 256
-13 31 -53 55 -72 43 -6 -4 -8 -25 -4 -51 6 -47 -9 -98 -37 -121 -14 -12 -31
-11 -111 5 l-95 18 -3 60 c-2 33 -2 126 0 208 l3 147 68 0 c73 0 85 -6 96 -53
9 -33 19 -40 47 -32 20 7 21 11 14 128 -6 125 -17 156 -50 144 -9 -4 -16 -17
-16 -30 0 -38 -21 -48 -92 -45 l-63 3 -3 213 -2 212 89 0 c49 0 96 3 105 6 10
4 27 -6 47 -26 30 -29 31 -34 25 -84 -3 -29 -3 -56 0 -59 11 -11 51 15 69 45
21 36 16 113 -12 199 -19 57 -32 65 -73 47z"/>
<path d="M2875 1277 c-92 -31 -162 -86 -229 -180 -117 -167 -155 -423 -96
-651 26 -103 75 -189 152 -268 85 -87 139 -112 250 -116 77 -4 94 -1 144 22
169 78 273 250 318 530 3 16 7 30 9 33 3 2 31 -28 63 -68 33 -40 82 -100 109
-133 28 -34 105 -128 171 -211 131 -162 148 -180 164 -170 7 4 10 190 10 573
1 483 3 570 15 586 32 42 22 46 -110 46 -138 0 -147 -5 -92 -51 l32 -27 3
-321 c1 -177 -1 -321 -5 -320 -4 0 -37 38 -73 84 -293 378 -477 576 -576 622
-70 32 -193 41 -259 20z m151 -128 c85 -41 146 -163 172 -346 13 -98 14 -131
4 -223 -18 -163 -68 -287 -140 -352 -72 -65 -140 -59 -209 15 -82 89 -122 213
-130 402 -4 111 -2 143 16 219 37 153 101 259 176 292 42 18 62 17 111 -7z"/>
<path d="M4806 1279 c-126 -31 -252 -143 -322 -284 -55 -112 -74 -203 -75
-353 0 -144 10 -192 67 -309 80 -167 199 -262 340 -271 105 -7 164 11 226 66
77 70 106 151 77 216 -12 25 -34 40 -49 31 -4 -2 -10 -25 -13 -50 -8 -58 -30
-90 -82 -120 -105 -62 -223 4 -304 170 -82 165 -79 440 6 615 94 194 285 242
360 90 20 -39 21 -50 12 -84 -8 -30 -8 -41 3 -47 19 -13 23 -11 51 16 72 72
18 238 -96 297 -47 24 -142 32 -201 17z"/>
<path d="M914 1265 c-4 -11 4 -26 24 -46 17 -17 34 -45 37 -63 4 -17 5 -245 3
-506 -3 -501 -4 -505 -50 -538 -10 -7 -18 -20 -18 -28 0 -12 26 -14 149 -14
83 0 152 4 155 9 3 5 -1 15 -10 22 -40 33 -44 59 -44 314 l0 245 73 1 c39 1
88 1 107 2 19 0 54 0 78 -1 l43 -2 -3 -261 -3 -261 -29 -23 c-52 -41 -34 -48
128 -47 81 0 150 3 152 5 3 3 -6 22 -21 42 l-25 38 0 522 0 522 25 23 c45 42
35 46 -117 53 -169 7 -188 0 -138 -51 l30 -32 0 -215 0 -216 -147 3 -148 3 -3
208 -2 208 30 30 c54 54 46 59 -104 59 -74 0 -141 3 -150 6 -10 4 -18 0 -22
-11z"/>
<path d="M1774 1265 c-3 -8 4 -26 15 -41 21 -26 21 -34 21 -549 0 -507 -1
-523 -20 -548 -41 -51 -32 -56 111 -59 71 -2 134 1 139 6 5 5 -2 24 -18 44
-24 32 -27 45 -30 135 l-4 99 33 34 c50 52 43 57 131 -95 93 -162 143 -212
223 -225 78 -13 255 29 255 60 0 8 -1 14 -2 14 -2 0 -29 4 -60 10 -76 12 -133
52 -197 137 -53 71 -151 250 -151 277 0 8 12 22 28 30 34 18 102 89 130 136
80 137 62 343 -38 434 -100 90 -190 116 -413 116 -121 0 -149 -3 -153 -15z
m335 -129 c40 -21 86 -77 106 -130 23 -59 16 -142 -16 -211 -26 -55 -117 -153
-167 -179 l-32 -17 0 276 0 275 40 0 c23 0 54 -7 69 -14z"/>
<path d="M4030 1261 c0 -5 14 -23 30 -39 l30 -30 0 -522 0 -522 -25 -30 c-43
-51 -39 -53 122 -51 160 2 177 8 127 48 l-29 23 -3 514 c-1 282 0 523 3 535 3
13 19 30 35 38 17 9 30 22 30 30 0 13 -26 15 -160 15 -91 0 -160 -4 -160 -9z"/>
<path d="M5170 1256 c0 -8 8 -21 18 -28 41 -29 42 -39 42 -561 l0 -504 -31
-43 c-17 -23 -27 -46 -22 -50 4 -4 40 -3 78 2 60 9 144 8 389 -5 l40 -2 13 60
c8 33 15 110 16 170 2 128 -10 168 -56 173 l-27 3 -1 -83 c0 -49 -7 -105 -17
-138 l-18 -55 -59 3 c-33 2 -73 5 -89 9 l-29 5 7 492 6 491 30 26 c53 45 44
49 -130 49 -133 0 -160 -2 -160 -14z"/>
</g>
</svg>
